<svg width="220" height="155" viewBox="0 0 220 155" fill="none" xmlns="http://www.w3.org/2000/svg">
<g clip-path="url(#clip0_263_65)">
<path d="M156.845 97.8928L108.84 97.1541L108.213 97.1441L108.579 96.6495L179.442 0.571526L179.709 0.2105L179.976 0.571526L205.121 34.5682L205.261 34.757L205.118 34.9439L157.114 97.7645L157.013 97.896L156.845 97.8928ZM27.0436 40.108L0.374337 2.41622L0.0210273 1.91678H121.967L122.065 2.04882L140.271 26.5733H71.1487C70.4827 24.9046 68.8147 23.7207 66.8616 23.7207C64.3227 23.7207 62.2646 25.7198 62.2646 28.1858C62.2646 30.6511 64.3227 32.6502 66.8616 32.6508C69.2961 32.6508 71.2872 30.8125 71.4468 28.4868H141.691L149.497 39.0026L149.869 39.504L149.232 39.5078L27.3168 40.2464L27.1421 40.2477L27.0436 40.108ZM130.694 14.4539H88.2049L77.3356 10.2313C77.3566 10.052 77.3691 9.87025 77.3691 9.68783C77.3691 7.35134 75.5841 5.22281 73.1004 5.22281C70.6161 5.22281 68.8318 7.35134 68.8318 9.68783C68.8318 12.0237 70.6161 14.1522 73.1004 14.1528C74.6496 14.1528 75.9276 13.3243 76.669 12.134L87.8765 16.3675H132.205L130.694 14.4539ZM73.1004 12.8771C71.4678 12.8765 70.1452 11.449 70.1452 9.68783C70.1452 7.92606 71.4678 6.49853 73.1004 6.49853C74.7324 6.49853 76.0556 7.92606 76.0556 9.68783C76.0556 11.449 74.7324 12.8771 73.1004 12.8771ZM52.0855 26.2722C54.5692 26.2722 56.3541 24.143 56.3541 21.8072C56.3541 21.5476 56.3312 21.2905 56.2885 21.0385L66.8616 16.497L78.6825 22.7461H137.271L135.75 20.8325H79.0109L66.8616 14.4539L55.5293 19.1722C54.7734 18.084 53.5513 17.3421 52.0855 17.3421C49.6011 17.3421 47.8168 19.4707 47.8168 21.8072C47.8168 24.143 49.6011 26.2716 52.0855 26.2722ZM52.0855 24.9965C50.4529 24.9958 49.1303 23.5683 49.1303 21.8072C49.1303 20.0454 50.4529 18.6179 52.0855 18.6179C53.7174 18.6179 55.0407 20.0454 55.0407 21.8072C55.0407 23.5683 53.7174 24.9965 52.0855 24.9965ZM66.8616 31.3751C65.0478 31.3744 63.578 29.9469 63.578 28.1858C63.578 26.424 65.0478 24.9965 66.8616 24.9965C68.6748 24.9965 70.1452 26.424 70.1452 28.1858C70.1452 29.9469 68.6748 31.3751 66.8616 31.3751ZM38.4908 154.685L13.3451 125.123L13.1829 124.932L13.334 124.732L60.5755 61.9113L60.6747 61.7799H109.495L109.11 62.2883L39.0077 154.671L38.7588 155L38.4908 154.685ZM98.6802 154.677L70.4867 119.202L70.0789 118.688H191.3L191.399 118.812L219.591 154.287L220 154.801H98.7787L98.6802 154.677ZM153.003 133.432C155.542 133.432 157.6 131.433 157.6 128.967C157.6 126.501 155.542 124.502 153.003 124.502C150.569 124.502 148.577 126.341 148.418 128.666H78.0258L79.552 130.579H148.716C149.382 132.248 151.05 133.432 153.003 133.432ZM153.003 132.157C151.19 132.157 149.72 130.729 149.72 128.967C149.72 127.206 151.19 125.778 153.003 125.778C154.817 125.778 156.287 127.206 156.287 128.967C156.287 130.729 154.817 132.157 153.003 132.157ZM164.336 137.981C165.092 139.069 166.314 139.811 167.779 139.811C170.264 139.811 172.048 137.682 172.048 135.346C172.048 133.01 170.264 130.881 167.779 130.881C165.295 130.881 163.511 133.01 163.511 135.346C163.511 135.606 163.534 135.863 163.577 136.115L153.003 140.656L141.182 134.407H82.5933L84.1149 136.32H140.854L153.003 142.699L164.336 137.981ZM167.779 138.535C166.147 138.535 164.824 137.107 164.824 135.346C164.824 133.585 166.147 132.157 167.779 132.157C169.412 132.157 170.735 133.585 170.735 135.346C170.735 137.107 169.412 138.535 167.779 138.535ZM146.764 151.93C149.249 151.93 151.033 149.801 151.033 147.465C151.033 145.129 149.249 143 146.764 143C145.215 143 143.938 143.829 143.197 145.019L131.988 140.785H87.6598L89.1709 142.699H131.66L142.53 146.922C142.509 147.101 142.496 147.283 142.496 147.465C142.496 149.801 144.281 151.93 146.764 151.93ZM146.764 150.655C145.132 150.655 143.809 149.227 143.809 147.465C143.809 145.704 145.132 144.276 146.764 144.276C148.397 144.276 149.72 145.704 149.72 147.465C149.72 149.227 148.397 150.655 146.764 150.655Z" fill="url(#paint0_linear_263_65)"/>
</g>
<defs>
<linearGradient id="paint0_linear_263_65" x1="190.765" y1="147.784" x2="35.263" y2="-3.76633" gradientUnits="userSpaceOnUse">
<stop offset="0.4375" stop-color="#020049"/>
<stop offset="1" stop-color="#2497C6"/>
</linearGradient>
<clipPath id="clip0_263_65">
<rect width="220" height="155" fill="white" transform="matrix(-1 0 0 -1 220 155)"/>
</clipPath>
</defs>
</svg>
