<svg width="66" height="47" viewBox="0 0 66 47" fill="none" xmlns="http://www.w3.org/2000/svg">
<path d="M47.0471 29.3049L32.6457 29.0832L32.4576 29.0802L32.5673 28.9319L53.8262 0.108467L53.9063 0.000160217L53.9863 0.108467L61.5298 10.3075L61.572 10.3641L61.5291 10.4202L47.1277 29.2664L47.0975 29.3058L47.0471 29.3049ZM8.10672 11.9694L0.105949 0.661873L-4.57764e-05 0.512043H36.5839L36.6132 0.551655L42.0749 7.90899H21.3382C21.1385 7.40839 20.6381 7.05323 20.0521 7.05323C19.2905 7.05323 18.673 7.65295 18.673 8.39274C18.673 9.13234 19.2905 9.73206 20.0521 9.73225C20.7825 9.73225 21.3798 9.18075 21.4277 8.48306H42.501L44.8427 11.6378L44.9542 11.7882L44.7633 11.7893L8.18868 12.0109L8.13627 12.0113L8.10672 11.9694ZM39.202 4.27319H26.4551L23.1943 3.00639C23.2006 2.95262 23.2044 2.89809 23.2044 2.84336C23.2044 2.14241 22.6689 1.50385 21.9238 1.50385C21.1785 1.50385 20.6432 2.14241 20.6432 2.84336C20.6432 3.54411 21.1785 4.18267 21.9238 4.18286C22.3885 4.18286 22.7719 3.93429 22.9944 3.57721L26.3566 4.84726H39.6551L39.202 4.27319ZM21.9238 3.80015C21.434 3.79996 21.0372 3.3717 21.0372 2.84336C21.0372 2.31483 21.434 1.88657 21.9238 1.88657C22.4134 1.88657 22.8103 2.31483 22.8103 2.84336C22.8103 3.3717 22.4134 3.80015 21.9238 3.80015ZM15.6193 7.81866C16.3644 7.81866 16.8999 7.17991 16.8999 6.47916C16.8999 6.40128 16.893 6.32416 16.8802 6.24857L20.0521 4.8861L23.5984 6.76084H41.1751L40.7186 6.18676H23.6969L20.0521 4.27319L16.6524 5.68866C16.4257 5.3622 16.059 5.13965 15.6193 5.13965C14.874 5.13965 14.3387 5.77821 14.3387 6.47916C14.3387 7.17991 14.874 7.81847 15.6193 7.81866ZM15.6193 7.43595C15.1295 7.43576 14.7327 7.0075 14.7327 6.47916C14.7327 5.95063 15.1295 5.52237 15.6193 5.52237C16.1089 5.52237 16.5059 5.95063 16.5059 6.47916C16.5059 7.0075 16.1089 7.43595 15.6193 7.43595ZM20.0521 9.34953C19.508 9.34934 19.0671 8.92108 19.0671 8.39274C19.0671 7.86421 19.508 7.43595 20.0521 7.43595C20.5961 7.43595 21.0372 7.86421 21.0372 8.39274C21.0372 8.92108 20.5961 9.34953 20.0521 9.34953ZM11.5409 46.3425L3.99719 37.4738L3.94852 37.4165L3.99384 37.3565L18.1663 18.5104L18.1961 18.471H32.8421L32.7267 18.6235L11.6959 46.3383L11.6213 46.437L11.5409 46.3425ZM29.5977 46.34L21.1397 35.6976L21.0173 35.5434H57.3837L57.4133 35.5806L65.8711 46.223L65.9937 46.3772H29.6273L29.5977 46.34ZM45.8946 39.9667C46.6563 39.9667 47.2738 39.367 47.2738 38.6272C47.2738 37.8874 46.6563 37.2877 45.8946 37.2877C45.1642 37.2877 44.5669 37.8392 44.519 38.5368H23.4014L23.8592 39.1108H44.6085C44.8082 39.6116 45.3087 39.9667 45.8946 39.9667ZM45.8946 39.584C45.3506 39.584 44.9095 39.1556 44.9095 38.6272C44.9095 38.0988 45.3506 37.6704 45.8946 37.6704C46.4387 37.6704 46.8797 38.0988 46.8797 38.6272C46.8797 39.1556 46.4387 39.584 45.8946 39.584ZM49.2945 41.3314C49.5212 41.6578 49.8877 41.8803 50.3275 41.8803C51.0728 41.8803 51.6081 41.2417 51.6081 40.5408C51.6081 39.8399 51.0728 39.2013 50.3275 39.2013C49.5822 39.2013 49.0469 39.8399 49.0469 40.5408C49.0469 40.6187 49.0539 40.6958 49.0667 40.7714L45.8946 42.1337L42.3483 40.259H24.7716L25.2281 40.8331H42.2498L45.8946 42.7466L49.2945 41.3314ZM50.3275 41.4976C49.8379 41.4976 49.4409 41.0692 49.4409 40.5408C49.4409 40.0124 49.8379 39.584 50.3275 39.584C50.8171 39.584 51.2141 40.0124 51.2141 40.5408C51.2141 41.0692 50.8171 41.4976 50.3275 41.4976ZM44.0229 45.5161C44.7682 45.5161 45.3035 44.8775 45.3035 44.1766C45.3035 43.4757 44.7682 42.8371 44.0229 42.8371C43.5582 42.8371 43.1752 43.0857 42.9528 43.4427L39.5901 42.1726H26.2916L26.7449 42.7466H39.4916L42.7526 44.0136C42.7463 44.0674 42.7423 44.1218 42.7423 44.1766C42.7423 44.8775 43.2778 45.5161 44.0229 45.5161ZM44.0229 45.1334C43.5334 45.1334 43.1364 44.705 43.1364 44.1766C43.1364 43.6482 43.5334 43.2198 44.0229 43.2198C44.5127 43.2198 44.9095 43.6482 44.9095 44.1766C44.9095 44.705 44.5127 45.1334 44.0229 45.1334Z" fill="white"/>
</svg>
